<?xml version="1.0" standalone="no"?>
<!DOCTYPE svg PUBLIC "-//W3C//DTD SVG 20010904//EN"
 "http://www.w3.org/TR/2001/REC-SVG-20010904/DTD/svg10.dtd">
<svg version="1.0" xmlns="http://www.w3.org/2000/svg"
 width="200.000000pt" height="200.000000pt" viewBox="0 0 200.000000 200.000000"
 preserveAspectRatio="xMidYMid meet">
<metadata>
Created by potrace 1.11, written by Peter Selinger 2001-2013
</metadata>
<g transform="translate(0.000000,200.000000) scale(0.100000,-0.100000)"
fill="#000000" stroke="none">
<path d="M836 1883 c-165 -34 -298 -98 -418 -201 -211 -180 -322 -431 -313
-712 4 -142 29 -242 90 -367 158 -322 486 -517 839 -500 124 6 144 9 235 38
397 126 652 496 628 913 -22 387 -291 713 -672 816 -103 28 -290 34 -389 13z
m379 -33 c388 -101 660 -448 663 -845 2 -338 -186 -643 -489 -793 -413 -203
-900 -58 -1146 343 -45 73 -91 198 -107 290 -13 75 -14 253 -2 303 49 208 117
340 237 461 140 140 286 217 484 256 90 17 265 10 360 -15z"/>
<path d="M1135 1790 c-10 -11 -22 -17 -27 -14 -11 7 -68 -44 -68 -60 0 -5 11
-22 25 -36 l25 -26 -35 -34 -35 -34 -32 32 -32 32 29 30 29 30 -29 30 c-16 17
-39 30 -52 30 -13 0 -23 4 -23 9 0 20 -41 23 -55 4 -11 -14 -18 -16 -32 -7
-29 17 -48 6 -27 -17 16 -18 16 -20 1 -37 -22 -24 -21 -35 2 -56 11 -10 18
-23 15 -30 -2 -6 9 -25 26 -41 l30 -29 28 27 c15 15 31 27 35 27 3 0 20 -13
36 -29 l29 -29 -35 -37 -35 -37 -27 26 c-17 16 -34 24 -44 20 -19 -7 -52 -54
-49 -70 1 -6 -7 -19 -18 -29 l-20 -18 21 -23 c18 -20 20 -26 9 -39 -19 -22 2
-44 25 -25 13 11 19 10 35 -5 20 -18 21 -18 43 2 12 11 27 19 32 17 6 -3 25
11 43 29 l32 33 -30 29 -30 29 37 38 37 38 38 -37 c21 -20 38 -40 38 -45 0 -4
-12 -19 -26 -33 l-26 -26 28 -30 c15 -16 36 -29 46 -29 10 0 28 -9 40 -20 l22
-20 22 21 c19 18 23 18 36 5 22 -22 44 1 23 24 -14 15 -13 19 5 40 l20 23 -20
19 c-11 10 -20 27 -20 38 0 10 -14 30 -32 45 l-31 26 -30 -29 -30 -30 -40 39
c-43 43 -44 38 10 96 11 12 43 8 43 -6 0 -3 9 -12 21 -19 18 -11 23 -9 50 19
16 17 26 35 23 41 -3 5 4 20 16 33 l21 23 -22 21 c-19 17 -20 23 -9 36 11 13
11 18 0 28 -10 9 -13 9 -17 0 -6 -18 -28 -16 -43 2 -16 20 -23 19 -45 -5z m67
-62 c30 -28 36 -48 16 -48 -21 1 -91 77 -83 89 8 13 19 6 67 -41z m-296 31 c9
-16 -73 -96 -86 -83 -6 6 3 24 28 52 39 45 47 49 58 31z m256 -80 c36 -35 45
-49 35 -57 -16 -13 -134 99 -123 117 9 14 17 9 88 -60z m-192 49 c0 -6 -24
-37 -54 -68 -39 -41 -58 -54 -65 -47 -8 8 5 28 46 69 58 58 73 68 73 46z m-5
-347 c-14 -14 -128 97 -120 117 4 12 20 1 68 -46 39 -40 58 -65 52 -71z m249
111 c6 -10 -97 -122 -112 -122 -24 0 -11 26 40 77 52 53 63 60 72 45z m-339
-92 c54 -55 34 -72 -22 -19 -24 22 -43 44 -43 49 0 21 28 8 65 -30z m370 30
c10 -15 -72 -97 -84 -85 -7 7 1 24 26 53 37 43 47 49 58 32z"/>
<path d="M1288 1543 c7 -3 16 -2 19 1 4 3 -2 6 -13 5 -11 0 -14 -3 -6 -6z"/>
<path d="M1418 1543 c7 -3 16 -2 19 1 4 3 -2 6 -13 5 -11 0 -14 -3 -6 -6z"/>
<path d="M830 1207 c22 -17 22 -223 0 -237 -11 -7 -4 -9 25 -9 22 1 32 3 23 6
-16 4 -18 19 -18 129 0 122 0 124 -22 124 -20 -1 -21 -2 -8 -13z"/>
<path d="M1100 1210 c0 -5 6 -9 12 -7 9 1 13 -28 13 -113 1 -95 -2 -116 -15
-122 -8 -4 3 -6 25 -6 22 0 32 2 23 5 -29 7 -24 78 6 98 29 19 56 10 57 -19 1
-11 2 -30 3 -41 0 -11 -8 -25 -19 -32 -18 -11 -16 -12 19 -13 31 0 37 3 28 12
-7 7 -12 27 -12 46 0 18 -5 42 -10 53 -13 23 -53 25 -74 3 -15 -14 -16 -8 -16
65 0 74 -2 81 -20 81 -11 0 -20 -4 -20 -10z"/>
<path d="M645 1163 c-33 -87 -84 -191 -97 -196 -7 -3 5 -5 27 -5 22 0 32 2 23
5 -22 6 -22 5 2 53 20 38 22 40 69 40 48 0 49 -1 65 -42 14 -33 15 -43 4 -49
-8 -6 2 -8 27 -8 22 1 32 3 23 6 -10 2 -37 51 -69 124 -28 65 -53 119 -54 119
-1 0 -10 -21 -20 -47z m46 -43 c13 -28 14 -40 6 -41 -17 -2 -61 2 -65 6 -2 1
5 21 14 44 19 47 20 47 45 -9z"/>
<path d="M922 1077 c13 -10 16 -29 14 -102 -1 -65 -5 -89 -14 -88 -6 2 -12 -2
-12 -7 0 -6 17 -10 38 -10 33 1 35 2 20 14 -12 8 -17 25 -16 49 1 34 3 36 29
30 61 -12 101 22 90 77 -8 43 -59 63 -102 40 -13 -7 -19 -7 -19 0 0 5 -10 10
-22 10 -21 -1 -21 -2 -6 -13z m126 -20 c17 -14 15 -41 -6 -67 -36 -45 -103 -1
-83 54 14 34 53 40 89 13z"/>
<path d="M1310 1070 c-41 -41 -11 -110 48 -110 15 0 33 5 40 12 9 9 12 9 12 0
0 -7 9 -12 21 -12 18 0 19 2 6 15 -11 10 -14 30 -12 65 2 27 -1 50 -6 50 -5 0
-9 -5 -9 -12 0 -9 -3 -9 -12 0 -19 19 -66 14 -88 -8z m78 -6 c30 -21 29 -59
-3 -80 -22 -14 -30 -15 -50 -4 -49 26 -33 92 25 99 3 1 16 -6 28 -15z"/>
<path d="M622 792 c-12 -2 -20 -8 -17 -13 9 -13 825 -12 825 1 0 6 -15 10 -32
11 -119 3 -757 3 -776 1z"/>
<path d="M460 598 c0 -4 7 -8 15 -8 12 0 15 -19 15 -115 0 -101 -2 -115 -17
-115 -32 0 -2 -14 33 -15 36 -1 46 9 17 17 -14 4 -18 15 -17 54 l1 49 69 5
c82 6 75 19 -8 16 -63 -3 -60 -6 -61 64 l-1 35 67 3 c62 3 67 1 67 -18 0 -11
4 -20 9 -20 6 0 9 12 8 27 l-2 28 -98 0 c-53 1 -97 -3 -97 -7z"/>
<path d="M828 574 c-5 -4 -8 -27 -8 -50 0 -34 -3 -42 -15 -38 -8 4 -15 1 -15
-5 0 -6 7 -11 15 -11 10 0 15 -16 17 -62 3 -57 5 -63 26 -64 12 -1 22 3 22 7
0 5 -7 9 -15 9 -12 0 -15 13 -15 55 0 52 1 55 26 55 15 0 23 4 19 10 -4 6 -14
9 -23 8 -13 -2 -18 7 -22 45 -3 27 -8 45 -12 41z"/>
<path d="M710 530 c0 -5 4 -10 9 -10 6 0 13 5 16 10 3 6 -1 10 -9 10 -9 0 -16
-4 -16 -10z"/>
<path d="M684 478 c-3 -4 3 -8 13 -8 15 0 18 -8 16 -47 -1 -27 -2 -51 -2 -55
-1 -5 -9 -8 -18 -8 -9 0 -13 -3 -9 -7 10 -10 76 -11 76 -1 0 4 -7 8 -15 8 -12
0 -15 14 -15 64 0 59 -2 65 -21 63 -11 -1 -23 -5 -25 -9z"/>
<path d="M920 480 c0 -5 5 -10 12 -12 7 -3 12 -26 13 -56 1 -45 -2 -52 -19
-52 -10 0 -16 -3 -12 -7 11 -11 76 -12 76 -1 0 4 -7 8 -15 8 -23 0 -20 72 3
93 22 20 58 22 69 5 4 -7 9 -32 10 -55 1 -32 -2 -43 -13 -43 -8 0 -14 -4 -14
-9 0 -5 17 -7 38 -6 49 4 51 5 26 15 -19 7 -21 15 -18 49 5 53 -22 85 -64 75
-15 -4 -32 -11 -39 -16 -7 -5 -13 -4 -15 3 -5 14 -38 22 -38 9z"/>
<path d="M1186 479 c-65 -19 -71 -100 -9 -128 32 -15 45 -14 69 3 17 13 15 14
-21 9 -30 -4 -44 -1 -54 11 -11 13 -10 17 5 22 11 4 39 15 63 24 l45 17 -27
27 c-28 28 -28 28 -71 15z m48 -15 c27 -10 18 -22 -29 -40 -53 -20 -64 -14
-41 21 16 25 39 31 70 19z"/>
<path d="M1336 474 c-25 -24 -19 -43 19 -61 42 -20 43 -46 2 -51 -20 -2 -27 1
-27 13 0 9 -4 13 -10 10 -33 -21 21 -52 63 -36 39 15 35 47 -8 73 -20 11 -34
26 -32 32 5 16 38 20 48 5 4 -7 12 -10 16 -5 9 9 -24 36 -43 36 -7 0 -20 -7
-28 -16z"/>
<path d="M1473 480 c-36 -15 -29 -48 13 -66 43 -18 44 -47 1 -52 -20 -3 -27 1
-27 14 0 15 -2 16 -12 5 -19 -18 19 -44 52 -36 51 13 54 55 4 78 -19 10 -34
23 -31 30 5 15 47 22 47 7 0 -6 5 -8 12 -4 7 5 5 11 -7 21 -21 15 -22 15 -52
3z"/>
</g>
</svg>
